<?xml version="1.0" standalone="no"?><!DOCTYPE svg PUBLIC "-//W3C//DTD SVG 1.1//EN"
        "http://www.w3.org/Graphics/SVG/1.1/DTD/svg11.dtd">
<svg t="1561366154904" class="icon" viewBox="0 0 1024 1024" version="1.1" xmlns="http://www.w3.org/2000/svg" p-id="1140"
     xmlns:xlink="http://www.w3.org/1999/xlink" width="200" height="200">
    <defs>
        <style type="text/css"></style>
    </defs>
    <path d="M512 992C246.912 992 32 777.088 32 512 32 246.896 246.912 32 512 32 777.088 32 992 246.896 992 512 992 777.088 777.088 992 512 992ZM512 96C282.256 96 96 282.256 96 512 96 741.744 282.256 928 512 928 741.744 928 928 741.744 928 512 928 282.256 741.744 96 512 96ZM726.928 726.24C714.336 738.864 693.936 738.864 681.344 726.24L510.016 553.888 335.632 726.24C322.816 738.864 302.048 738.864 289.248 726.24 276.432 713.6 276.432 693.12 289.248 680.496L464.096 507.696 299.488 342.112C286.912 329.488 286.912 309.008 299.488 296.384 312.08 283.76 332.48 283.76 345.072 296.384L510.016 462.32 677.92 296.384C690.72 283.76 711.488 283.76 724.304 296.384 737.104 309.008 737.104 329.488 724.304 342.112L555.936 508.512 726.928 680.496C739.504 693.12 739.504 713.6 726.928 726.24Z"
          p-id="1141"></path>
</svg>