<?xml version="1.0" standalone="no"?><!DOCTYPE svg PUBLIC "-//W3C//DTD SVG 1.1//EN" "http://www.w3.org/Graphics/SVG/1.1/DTD/svg11.dtd"><svg t="1578806286491" class="icon" viewBox="0 0 1024 1024" version="1.1" xmlns="http://www.w3.org/2000/svg" p-id="2392" xmlns:xlink="http://www.w3.org/1999/xlink" width="200" height="200"><defs><style type="text/css"></style></defs><path d="M896 377.856v537.6c0 15.872-5.632 29.696-16.896 40.96-11.264 11.264-24.576 16.896-40.96 16.896H185.856c-15.872 0-29.696-5.632-40.96-16.896C133.632 945.152 128 931.84 128 915.456v-806.4c0-15.872 5.632-29.696 16.896-40.96C156.16 56.832 169.472 51.2 185.856 51.2h384c15.872 0 33.792 4.096 52.736 11.776 19.456 8.192 34.304 17.408 45.568 28.672L855.04 279.04c11.264 11.264 20.992 26.624 28.672 45.568C891.904 344.064 896 361.472 896 377.856zM204.8 896h614.4V435.2H569.344c-15.872 0-29.696-5.632-40.96-16.896-11.264-11.264-16.896-24.576-16.896-40.96V128H204.8v768z m384-537.6h225.792c-4.096-11.776-8.192-19.968-13.312-24.576L613.376 145.92c-4.608-4.608-12.8-9.216-24.576-13.312V358.4z" fill="" p-id="2393"></path></svg>