<?xml version="1.0" standalone="no"?><!DOCTYPE svg PUBLIC "-//W3C//DTD SVG 1.1//EN" "http://www.w3.org/Graphics/SVG/1.1/DTD/svg11.dtd"><svg t="1578806453015" class="icon" viewBox="0 0 1028 1024" version="1.1" xmlns="http://www.w3.org/2000/svg" p-id="4592" xmlns:xlink="http://www.w3.org/1999/xlink" width="200.78125" height="200"><defs><style type="text/css"></style></defs><path d="M512 358.59090925c-84.375 0-153.40909075 69.03409076-153.40909075 153.40909075s69.03409076 153.40909075 153.40909075 153.40909075 153.40909075-69.03409076 153.40909075-153.40909075-69.03409076-153.40909075-153.40909075-153.40909075z m0 249.28977227c-53.69318152 0-95.88068152-42.1875-95.88068152-95.88068152S458.30681848 416.11931848 512 416.11931848s95.88068152 42.1875 95.88068152 95.88068152-42.1875 95.88068152-95.88068152 95.88068152z" p-id="4593"></path><path d="M880.18181848 412.28409076H818.81818152s-7.67045462-3.8352269-7.67045462-7.67045463l-11.50568152-30.68181765v-7.67045461l42.1875-42.1875c11.50568152-11.50568152 15.34090925-23.01136387 15.34090924-38.35227311s-3.8352269-26.84659075-15.34090924-38.35227228l-65.19886386-65.19886386c-19.17613613-19.17613613-57.52840924-19.17613613-76.70454539 0l-42.1875 42.1875s-3.8352269 3.8352269-11.50568151 0l-30.68181849-11.50568152s-3.8352269-3.8352269-3.83522688-7.67045462V143.81818152C611.71590924 113.13636387 588.70454538 90.125 558.0227269 90.125H465.9772731C435.29545462 90.125 412.28409076 113.13636387 412.28409076 143.81818152V205.18181848s-3.8352269 7.67045462-7.67045463 7.67045462l-30.68181765 11.50568152h-7.67045461L324.07386387 182.17045462c-11.50568152-11.50568152-23.01136387-15.34090925-38.35227312-15.34090924s-26.84659075 3.8352269-38.35227227 15.34090924L182.17045462 247.36931848c-11.50568152 11.50568152-15.34090925 23.01136387-15.34090924 38.35227228s3.8352269 26.84659075 15.34090924 38.35227311l42.1875 42.1875s3.8352269 7.67045462 0 11.50568151l-11.50568152 26.84659075s-3.8352269 3.8352269-7.67045462 3.83522774H143.81818152C113.13636387 412.28409076 90.125 435.29545462 90.125 465.9772731v95.88068152c0 30.68181848 23.01136387 53.69318152 53.69318152 53.69318151H205.18181848s7.67045462 3.8352269 7.67045462 7.67045463l11.50568152 30.68181849v7.67045462L182.17045462 703.76136387c-11.50568152 11.50568152-15.34090925 23.01136387-15.34090924 38.35227226s3.8352269 26.84659075 15.34090924 38.35227312l65.19886386 65.19886385c19.17613613 19.17613613 57.52840924 19.17613613 76.70454539 0l42.1875-42.1875s3.8352269-3.8352269 11.50568151 0l30.68181849 11.50568152s3.8352269 3.8352269 3.83522689 7.67045462v61.36363614c0 26.84659075 23.01136387 49.85795462 53.69318234 49.85795462h95.88068152c30.68181848 0 53.69318152-23.01136387 53.69318151-53.69318152V818.81818152s3.8352269-7.67045462 7.67045463-7.67045462l30.68181849-11.50568152h7.67045462l42.1875 42.1875c19.17613613 19.17613613 57.52840924 19.17613613 76.70454538 0l65.19886385-65.19886386c11.50568152-11.50568152 15.34090925-23.01136387 15.34090842-38.35227228s-3.8352269-26.84659075-15.34090842-38.35227311l-42.1875-42.1875s-3.8352269-7.67045462 0-11.50568151l11.50568152-30.68181849s3.8352269-3.8352269 7.67045463-3.83522689h61.36363613c30.68181848 0 53.69318152-23.01136387 53.69318152-53.69318234V465.9772731c-3.8352269-30.68181848-26.84659075-53.69318152-57.52840842-53.69318234z m-76.70454538 325.99431849z m-46.02272772-141.90340925l-11.50568151 26.84659075c-11.50568152 23.01136387-7.67045462 53.69318152 11.50568151 72.86931849l42.1875 42.1875-61.36363614 61.36363614-42.1875-42.1875c-19.17613613-19.17613613-53.69318152-23.01136387-72.86931849-11.50568151l-26.84659075 11.50568151c-26.84659075 7.67045462-42.1875 34.51704538-42.1875 61.36363614v57.52840923H469.8125V818.81818152c0-26.84659075-19.17613613-53.69318152-42.1875-61.36363614l-26.84659075-11.50568151c-23.01136387-11.50568152-57.52840924-7.67045462-72.86931849 11.50568151l-42.1875 42.1875-61.36363614-61.36363614 42.1875-42.1875c15.34090925-15.34090925 23.01136387-49.85795462 11.50568151-69.03409076l-11.50568151-26.84659158c-7.67045462-26.84659075-34.51704538-42.1875-61.36363614-42.1875H147.65340924V469.8125H205.18181848c26.84659075 0 53.69318152-19.17613613 61.36363614-42.1875l11.50568151-26.84659075c11.50568152-23.01136387 3.8352269-57.52840924-15.34090923-72.86931849l-38.35227228-42.1875 61.36363614-61.36363614 42.1875 42.1875c15.34090925 15.34090925 53.69318152 19.17613613 69.03409076 11.50568151l26.84659158-11.50568151c26.84659075-7.67045462 46.0227269-34.51704538 46.0227269-61.36363614V147.65340924h88.2102269V205.18181848c0 26.84659075 19.17613613 53.69318152 42.1875 61.36363614l26.84659158 11.50568151c23.01136387 11.50568152 57.52840924 7.67045462 72.86931765-11.50568151L742.11363613 224.35795462l61.36363697 61.36363614-42.1875 42.1875c-19.17613613 15.34090925-26.84659075 49.85795462-15.34090923 69.03409076l11.50568151 26.84659158c7.67045462 26.84659075 34.51704538 42.1875 61.36363614 42.1875h57.52840923v88.2102269H818.81818152c-26.84659075 0-53.69318152 19.17613613-61.36363614 42.1875zM220.5227269 742.11363613z m0-456.39204538zM803.4772731 281.88636387z" p-id="4594"></path></svg>