<?xml version="1.0" standalone="no"?><!DOCTYPE svg PUBLIC "-//W3C//DTD SVG 1.1//EN" "http://www.w3.org/Graphics/SVG/1.1/DTD/svg11.dtd"><svg t="1578806332495" class="icon" viewBox="0 0 1024 1024" version="1.1" xmlns="http://www.w3.org/2000/svg" p-id="3160" xmlns:xlink="http://www.w3.org/1999/xlink" width="200" height="200"><defs><style type="text/css"></style></defs><path d="M102.146 273.325h79.866v583.713c0 55.509 45.158 100.666 100.666 100.666h457.93c55.509 0 100.666-45.157 100.666-100.666V273.325h79.86c16.354 0 29.608-13.257 29.608-29.607s-13.254-29.608-29.608-29.608H725.27L671.308 83.786a29.613 29.613 0 0 0-27.358-18.282H379.343a29.6 29.6 0 0 0-27.352 18.28l-53.965 130.325h-195.88c-16.353 0-29.607 13.257-29.607 29.608s13.254 29.608 29.607 29.608zM782.06 857.038c0 22.857-18.598 41.451-41.451 41.451h-457.93c-22.854 0-41.452-18.594-41.452-41.45V273.324h540.832v583.713zM399.13 124.72h225.03l37.015 89.39H362.113l37.018-89.39z" p-id="3161"></path><path d="M362.544 774.053c16.354 0 29.607-13.257 29.607-29.607V430.774c0-16.35-13.253-29.607-29.607-29.607s-29.607 13.257-29.607 29.607v313.671c0 16.351 13.254 29.608 29.607 29.608z m148.039 0c16.353 0 29.607-13.257 29.607-29.607V430.774c0-16.35-13.254-29.607-29.607-29.607s-29.608 13.257-29.608 29.607v313.671c0 16.351 13.254 29.608 29.608 29.608z m148.038 0c16.354 0 29.608-13.257 29.608-29.607V430.774c0-16.35-13.254-29.607-29.608-29.607s-29.607 13.257-29.607 29.607v313.671c-0.001 16.351 13.253 29.608 29.607 29.608z" p-id="3162"></path></svg>