<?xml version="1.0" standalone="no"?><!DOCTYPE svg PUBLIC "-//W3C//DTD SVG 1.1//EN" "http://www.w3.org/Graphics/SVG/1.1/DTD/svg11.dtd"><svg t="1578806337584" class="icon" viewBox="0 0 1024 1024" version="1.1" xmlns="http://www.w3.org/2000/svg" p-id="3285" xmlns:xlink="http://www.w3.org/1999/xlink" width="200" height="200"><defs><style type="text/css"></style></defs><path d="M560.010457 511.537466l390.284891-390.284891c13.025665-13.025665 13.025665-34.339086 0-47.364751-13.024641-13.024641-34.338063-13.024641-47.363728 0L512.645706 464.173738 122.360815 73.887824c-13.025665-13.024641-34.339086-13.024641-47.36475 0-13.024641 13.025665-13.024641 34.339086 0 47.364751l390.285914 390.284891L74.996065 901.822356c-13.024641 13.025665-13.024641 34.339086 0 47.363728 13.025665 13.025665 34.339086 13.025665 47.36475 0L512.645706 558.902216l390.285914 390.284891c13.025665 13.025665 34.339086 13.025665 47.363728 0 13.025665-13.024641 13.025665-34.338063 0-47.363727L560.010457 511.537466z" p-id="3286"></path></svg>